<mxfile host="65bd71144e">
    <diagram name="Page-1" id="e995MOHbL0IESGSoAM8X">
        <mxGraphModel dx="964" dy="560" grid="1" gridSize="10" guides="1" tooltips="1" connect="1" arrows="1" fold="1" page="1" pageScale="1" pageWidth="850" pageHeight="1100" math="0" shadow="0">
            <root>
                <mxCell id="0"/>
                <mxCell id="1" parent="0"/>
                <mxCell id="yoaOcqHaSxs_0SUbm4wB-37" style="edgeStyle=orthogonalEdgeStyle;rounded=0;orthogonalLoop=1;jettySize=auto;html=1;entryX=0;entryY=0.5;entryDx=0;entryDy=0;" parent="1" target="yoaOcqHaSxs_0SUbm4wB-35" edge="1">
                    <mxGeometry relative="1" as="geometry">
                        <Array as="points">
                            <mxPoint x="100" y="440"/>
                        </Array>
                        <mxPoint x="100" y="620" as="sourcePoint"/>
                    </mxGeometry>
                </mxCell>
                <mxCell id="yoaOcqHaSxs_0SUbm4wB-38" style="edgeStyle=orthogonalEdgeStyle;rounded=0;orthogonalLoop=1;jettySize=auto;html=1;entryX=0;entryY=0.5;entryDx=0;entryDy=0;" parent="1" target="yoaOcqHaSxs_0SUbm4wB-36" edge="1">
                    <mxGeometry relative="1" as="geometry">
                        <Array as="points">
                            <mxPoint x="100" y="540"/>
                        </Array>
                        <mxPoint x="100" y="620" as="sourcePoint"/>
                    </mxGeometry>
                </mxCell>
                <mxCell id="yoaOcqHaSxs_0SUbm4wB-46" style="edgeStyle=orthogonalEdgeStyle;rounded=0;orthogonalLoop=1;jettySize=auto;html=1;" parent="1" target="yoaOcqHaSxs_0SUbm4wB-42" edge="1">
                    <mxGeometry relative="1" as="geometry">
                        <mxPoint x="160" y="650" as="sourcePoint"/>
                    </mxGeometry>
                </mxCell>
                <mxCell id="yoaOcqHaSxs_0SUbm4wB-35" value="Search &amp;amp; Filters" style="rounded=1;whiteSpace=wrap;html=1;" parent="1" vertex="1">
                    <mxGeometry x="220" y="410" width="120" height="60" as="geometry"/>
                </mxCell>
                <mxCell id="lcj7LOPd5DflClwkAGSy-16" style="edgeStyle=orthogonalEdgeStyle;rounded=0;orthogonalLoop=1;jettySize=auto;html=1;" parent="1" source="yoaOcqHaSxs_0SUbm4wB-36" target="lcj7LOPd5DflClwkAGSy-4" edge="1">
                    <mxGeometry relative="1" as="geometry"/>
                </mxCell>
                <mxCell id="yoaOcqHaSxs_0SUbm4wB-36" value="Create PO" style="rounded=1;whiteSpace=wrap;html=1;" parent="1" vertex="1">
                    <mxGeometry x="225" y="510" width="120" height="60" as="geometry"/>
                </mxCell>
                <mxCell id="yoaOcqHaSxs_0SUbm4wB-42" value="Table" style="swimlane;fontStyle=0;childLayout=stackLayout;horizontal=1;startSize=30;horizontalStack=0;resizeParent=1;resizeParentMax=0;resizeLast=0;collapsible=1;marginBottom=0;whiteSpace=wrap;html=1;" parent="1" vertex="1">
                    <mxGeometry x="225" y="895" width="185" height="330" as="geometry"/>
                </mxCell>
                <mxCell id="yoaOcqHaSxs_0SUbm4wB-43" value="Purchase Order ID" style="text;strokeColor=none;fillColor=none;align=left;verticalAlign=middle;spacingLeft=4;spacingRight=4;overflow=hidden;points=[[0,0.5],[1,0.5]];portConstraint=eastwest;rotatable=0;whiteSpace=wrap;html=1;" parent="yoaOcqHaSxs_0SUbm4wB-42" vertex="1">
                    <mxGeometry y="30" width="185" height="30" as="geometry"/>
                </mxCell>
                <mxCell id="yoaOcqHaSxs_0SUbm4wB-44" value="Date Created" style="text;strokeColor=none;fillColor=none;align=left;verticalAlign=middle;spacingLeft=4;spacingRight=4;overflow=hidden;points=[[0,0.5],[1,0.5]];portConstraint=eastwest;rotatable=0;whiteSpace=wrap;html=1;" parent="yoaOcqHaSxs_0SUbm4wB-42" vertex="1">
                    <mxGeometry y="60" width="185" height="30" as="geometry"/>
                </mxCell>
                <mxCell id="yoaOcqHaSxs_0SUbm4wB-45" value="&lt;span style=&quot;background-color: rgb(153, 153, 255);&quot;&gt;Status&lt;/span&gt;" style="text;strokeColor=none;fillColor=none;align=left;verticalAlign=middle;spacingLeft=4;spacingRight=4;overflow=hidden;points=[[0,0.5],[1,0.5]];portConstraint=eastwest;rotatable=0;whiteSpace=wrap;html=1;fontStyle=1" parent="yoaOcqHaSxs_0SUbm4wB-42" vertex="1">
                    <mxGeometry y="90" width="185" height="30" as="geometry"/>
                </mxCell>
                <mxCell id="yoaOcqHaSxs_0SUbm4wB-62" value="Last Updated Date" style="text;strokeColor=none;fillColor=none;align=left;verticalAlign=middle;spacingLeft=4;spacingRight=4;overflow=hidden;points=[[0,0.5],[1,0.5]];portConstraint=eastwest;rotatable=0;whiteSpace=wrap;html=1;" parent="yoaOcqHaSxs_0SUbm4wB-42" vertex="1">
                    <mxGeometry y="120" width="185" height="30" as="geometry"/>
                </mxCell>
                <mxCell id="lcj7LOPd5DflClwkAGSy-122" value="PO Value Total" style="text;strokeColor=none;fillColor=none;align=left;verticalAlign=middle;spacingLeft=4;spacingRight=4;overflow=hidden;points=[[0,0.5],[1,0.5]];portConstraint=eastwest;rotatable=0;whiteSpace=wrap;html=1;" parent="yoaOcqHaSxs_0SUbm4wB-42" vertex="1">
                    <mxGeometry y="150" width="185" height="30" as="geometry"/>
                </mxCell>
                <mxCell id="kTVfm1OgH7Nki4kQpCt1-3" value="&lt;b style=&quot;background-color: rgb(255, 153, 255);&quot;&gt;Product List&lt;/b&gt;" style="text;strokeColor=none;fillColor=none;align=left;verticalAlign=middle;spacingLeft=4;spacingRight=4;overflow=hidden;points=[[0,0.5],[1,0.5]];portConstraint=eastwest;rotatable=0;whiteSpace=wrap;html=1;labelBackgroundColor=#FF6666;" parent="yoaOcqHaSxs_0SUbm4wB-42" vertex="1">
                    <mxGeometry y="180" width="185" height="30" as="geometry"/>
                </mxCell>
                <mxCell id="yoaOcqHaSxs_0SUbm4wB-59" value="&lt;b&gt;Download PO&lt;/b&gt;" style="text;strokeColor=none;fillColor=none;align=left;verticalAlign=middle;spacingLeft=4;spacingRight=4;overflow=hidden;points=[[0,0.5],[1,0.5]];portConstraint=eastwest;rotatable=0;whiteSpace=wrap;html=1;labelBackgroundColor=#FF6666;" parent="yoaOcqHaSxs_0SUbm4wB-42" vertex="1">
                    <mxGeometry y="210" width="185" height="30" as="geometry"/>
                </mxCell>
                <mxCell id="lcj7LOPd5DflClwkAGSy-124" value="&lt;b style=&quot;background-color: rgb(181, 115, 157);&quot;&gt;Close PO&lt;/b&gt;" style="text;strokeColor=none;fillColor=none;align=left;verticalAlign=middle;spacingLeft=4;spacingRight=4;overflow=hidden;points=[[0,0.5],[1,0.5]];portConstraint=eastwest;rotatable=0;whiteSpace=wrap;html=1;labelBackgroundColor=#FF6666;" parent="yoaOcqHaSxs_0SUbm4wB-42" vertex="1">
                    <mxGeometry y="240" width="185" height="30" as="geometry"/>
                </mxCell>
                <mxCell id="yoaOcqHaSxs_0SUbm4wB-102" value="Edit" style="text;strokeColor=none;fillColor=none;align=left;verticalAlign=middle;spacingLeft=4;spacingRight=4;overflow=hidden;points=[[0,0.5],[1,0.5]];portConstraint=eastwest;rotatable=0;whiteSpace=wrap;html=1;fontStyle=1;labelBackgroundColor=#FFD966;" parent="yoaOcqHaSxs_0SUbm4wB-42" vertex="1">
                    <mxGeometry y="270" width="185" height="30" as="geometry"/>
                </mxCell>
                <mxCell id="yoaOcqHaSxs_0SUbm4wB-101" value="Delete" style="text;strokeColor=none;fillColor=none;align=left;verticalAlign=middle;spacingLeft=4;spacingRight=4;overflow=hidden;points=[[0,0.5],[1,0.5]];portConstraint=eastwest;rotatable=0;whiteSpace=wrap;html=1;fontStyle=1;labelBackgroundColor=#FFD966;" parent="yoaOcqHaSxs_0SUbm4wB-42" vertex="1">
                    <mxGeometry y="300" width="185" height="30" as="geometry"/>
                </mxCell>
                <mxCell id="lcj7LOPd5DflClwkAGSy-1" value="Purchase Order for Stock" style="rounded=1;whiteSpace=wrap;html=1;fillColor=#fff2cc;strokeColor=#d6b656;fontColor=#121212;" parent="1" vertex="1">
                    <mxGeometry x="370" y="30" width="120" height="60" as="geometry"/>
                </mxCell>
                <mxCell id="lcj7LOPd5DflClwkAGSy-131" style="edgeStyle=orthogonalEdgeStyle;rounded=0;orthogonalLoop=1;jettySize=auto;html=1;fontColor=#121212;" parent="1" source="lcj7LOPd5DflClwkAGSy-2" target="lcj7LOPd5DflClwkAGSy-129" edge="1">
                    <mxGeometry relative="1" as="geometry"/>
                </mxCell>
                <mxCell id="lcj7LOPd5DflClwkAGSy-132" style="edgeStyle=orthogonalEdgeStyle;rounded=0;orthogonalLoop=1;jettySize=auto;html=1;fontColor=#121212;" parent="1" source="lcj7LOPd5DflClwkAGSy-2" target="lcj7LOPd5DflClwkAGSy-130" edge="1">
                    <mxGeometry relative="1" as="geometry"/>
                </mxCell>
                <mxCell id="lcj7LOPd5DflClwkAGSy-2" value="Purchase Order for Stock" style="rounded=1;whiteSpace=wrap;html=1;fillColor=#fff2cc;strokeColor=#d6b656;fontColor=#121212;" parent="1" vertex="1">
                    <mxGeometry x="370" y="30" width="120" height="60" as="geometry"/>
                </mxCell>
                <mxCell id="lcj7LOPd5DflClwkAGSy-3" value="Open POs" style="rounded=1;whiteSpace=wrap;html=1;fillColor=#f8cecc;strokeColor=#b85450;fontColor=#000000;" parent="1" vertex="1">
                    <mxGeometry x="40" y="620" width="120" height="60" as="geometry"/>
                </mxCell>
                <mxCell id="lcj7LOPd5DflClwkAGSy-4" value="Input Fields" style="swimlane;fontStyle=0;childLayout=stackLayout;horizontal=1;startSize=30;horizontalStack=0;resizeParent=1;resizeParentMax=0;resizeLast=0;collapsible=1;marginBottom=0;whiteSpace=wrap;html=1;" parent="1" vertex="1">
                    <mxGeometry x="500" y="420" width="185" height="180" as="geometry"/>
                </mxCell>
                <mxCell id="lcj7LOPd5DflClwkAGSy-17" value="&lt;b style=&quot;background-color: rgb(255, 153, 255);&quot;&gt;Product List&lt;/b&gt;" style="text;strokeColor=none;fillColor=none;align=left;verticalAlign=middle;spacingLeft=4;spacingRight=4;overflow=hidden;points=[[0,0.5],[1,0.5]];portConstraint=eastwest;rotatable=0;whiteSpace=wrap;html=1;" parent="lcj7LOPd5DflClwkAGSy-4" vertex="1">
                    <mxGeometry y="30" width="185" height="30" as="geometry"/>
                </mxCell>
                <mxCell id="lcj7LOPd5DflClwkAGSy-8" value="Purchase Order Date" style="text;strokeColor=none;fillColor=none;align=left;verticalAlign=middle;spacingLeft=4;spacingRight=4;overflow=hidden;points=[[0,0.5],[1,0.5]];portConstraint=eastwest;rotatable=0;whiteSpace=wrap;html=1;" parent="lcj7LOPd5DflClwkAGSy-4" vertex="1">
                    <mxGeometry y="60" width="185" height="30" as="geometry"/>
                </mxCell>
                <mxCell id="lcj7LOPd5DflClwkAGSy-28" value="Purchase Order ID" style="text;strokeColor=none;fillColor=none;align=left;verticalAlign=middle;spacingLeft=4;spacingRight=4;overflow=hidden;points=[[0,0.5],[1,0.5]];portConstraint=eastwest;rotatable=0;whiteSpace=wrap;html=1;" parent="lcj7LOPd5DflClwkAGSy-4" vertex="1">
                    <mxGeometry y="90" width="185" height="30" as="geometry"/>
                </mxCell>
                <mxCell id="lcj7LOPd5DflClwkAGSy-44" value="&lt;span style=&quot;font-weight: 700; background-color: rgb(255, 217, 102);&quot;&gt;Create&lt;/span&gt;" style="text;strokeColor=none;fillColor=none;align=left;verticalAlign=middle;spacingLeft=4;spacingRight=4;overflow=hidden;points=[[0,0.5],[1,0.5]];portConstraint=eastwest;rotatable=0;whiteSpace=wrap;html=1;" parent="lcj7LOPd5DflClwkAGSy-4" vertex="1">
                    <mxGeometry y="120" width="185" height="30" as="geometry"/>
                </mxCell>
                <mxCell id="lcj7LOPd5DflClwkAGSy-15" value="Cancel" style="text;strokeColor=none;fillColor=none;align=left;verticalAlign=middle;spacingLeft=4;spacingRight=4;overflow=hidden;points=[[0,0.5],[1,0.5]];portConstraint=eastwest;rotatable=0;whiteSpace=wrap;html=1;fontStyle=1;labelBackgroundColor=#FFD966;" parent="lcj7LOPd5DflClwkAGSy-4" vertex="1">
                    <mxGeometry y="150" width="185" height="30" as="geometry"/>
                </mxCell>
                <mxCell id="lcj7LOPd5DflClwkAGSy-18" value="&lt;b style=&quot;text-align: left; background-color: rgb(255, 153, 255);&quot;&gt;Product List&lt;/b&gt;" style="swimlane;fontStyle=0;childLayout=stackLayout;horizontal=1;startSize=30;horizontalStack=0;resizeParent=1;resizeParentMax=0;resizeLast=0;collapsible=1;marginBottom=0;whiteSpace=wrap;html=1;fontColor=#000000;" parent="1" vertex="1">
                    <mxGeometry x="750" y="420" width="185" height="360" as="geometry"/>
                </mxCell>
                <mxCell id="lcj7LOPd5DflClwkAGSy-100" value="SKU ID" style="text;strokeColor=none;fillColor=none;align=left;verticalAlign=middle;spacingLeft=4;spacingRight=4;overflow=hidden;points=[[0,0.5],[1,0.5]];portConstraint=eastwest;rotatable=0;whiteSpace=wrap;html=1;" parent="lcj7LOPd5DflClwkAGSy-18" vertex="1">
                    <mxGeometry y="30" width="185" height="30" as="geometry"/>
                </mxCell>
                <mxCell id="lcj7LOPd5DflClwkAGSy-20" value="Product Name" style="text;strokeColor=none;fillColor=none;align=left;verticalAlign=middle;spacingLeft=4;spacingRight=4;overflow=hidden;points=[[0,0.5],[1,0.5]];portConstraint=eastwest;rotatable=0;whiteSpace=wrap;html=1;" parent="lcj7LOPd5DflClwkAGSy-18" vertex="1">
                    <mxGeometry y="60" width="185" height="30" as="geometry"/>
                </mxCell>
                <mxCell id="lcj7LOPd5DflClwkAGSy-21" value="Quantity" style="text;strokeColor=none;fillColor=none;align=left;verticalAlign=middle;spacingLeft=4;spacingRight=4;overflow=hidden;points=[[0,0.5],[1,0.5]];portConstraint=eastwest;rotatable=0;whiteSpace=wrap;html=1;" parent="lcj7LOPd5DflClwkAGSy-18" vertex="1">
                    <mxGeometry y="90" width="185" height="30" as="geometry"/>
                </mxCell>
                <mxCell id="lcj7LOPd5DflClwkAGSy-22" value="Barcode" style="text;strokeColor=none;fillColor=none;align=left;verticalAlign=middle;spacingLeft=4;spacingRight=4;overflow=hidden;points=[[0,0.5],[1,0.5]];portConstraint=eastwest;rotatable=0;whiteSpace=wrap;html=1;" parent="lcj7LOPd5DflClwkAGSy-18" vertex="1">
                    <mxGeometry y="120" width="185" height="30" as="geometry"/>
                </mxCell>
                <mxCell id="lcj7LOPd5DflClwkAGSy-23" value="Purchase Cost -&amp;gt; Per SKU" style="text;strokeColor=none;fillColor=none;align=left;verticalAlign=middle;spacingLeft=4;spacingRight=4;overflow=hidden;points=[[0,0.5],[1,0.5]];portConstraint=eastwest;rotatable=0;whiteSpace=wrap;html=1;" parent="lcj7LOPd5DflClwkAGSy-18" vertex="1">
                    <mxGeometry y="150" width="185" height="30" as="geometry"/>
                </mxCell>
                <mxCell id="n68UF_-MUVvqjUCe3lZR-2" value="Source_Code (For warehouse)" style="text;strokeColor=none;fillColor=none;align=left;verticalAlign=middle;spacingLeft=4;spacingRight=4;overflow=hidden;points=[[0,0.5],[1,0.5]];portConstraint=eastwest;rotatable=0;whiteSpace=wrap;html=1;" parent="lcj7LOPd5DflClwkAGSy-18" vertex="1">
                    <mxGeometry y="180" width="185" height="30" as="geometry"/>
                </mxCell>
                <mxCell id="lcj7LOPd5DflClwkAGSy-24" value="&lt;b&gt;Supplier Details&lt;/b&gt;" style="text;strokeColor=none;fillColor=none;align=left;verticalAlign=middle;spacingLeft=4;spacingRight=4;overflow=hidden;points=[[0,0.5],[1,0.5]];portConstraint=eastwest;rotatable=0;whiteSpace=wrap;html=1;labelBackgroundColor=#FF6666;" parent="lcj7LOPd5DflClwkAGSy-18" vertex="1">
                    <mxGeometry y="210" width="185" height="30" as="geometry"/>
                </mxCell>
                <mxCell id="6DW21Ch75TktfgpjDAuI-1" value="&lt;b style=&quot;background-color: rgb(153, 255, 153);&quot;&gt;Cost Structure&lt;/b&gt;" style="text;strokeColor=none;fillColor=none;align=left;verticalAlign=middle;spacingLeft=4;spacingRight=4;overflow=hidden;points=[[0,0.5],[1,0.5]];portConstraint=eastwest;rotatable=0;whiteSpace=wrap;html=1;labelBackgroundColor=#FF6666;" parent="lcj7LOPd5DflClwkAGSy-18" vertex="1">
                    <mxGeometry y="240" width="185" height="30" as="geometry"/>
                </mxCell>
                <mxCell id="lcj7LOPd5DflClwkAGSy-25" value="Add Product" style="text;strokeColor=none;fillColor=none;align=left;verticalAlign=middle;spacingLeft=4;spacingRight=4;overflow=hidden;points=[[0,0.5],[1,0.5]];portConstraint=eastwest;rotatable=0;whiteSpace=wrap;html=1;fontStyle=1;labelBackgroundColor=#FFD966;" parent="lcj7LOPd5DflClwkAGSy-18" vertex="1">
                    <mxGeometry y="270" width="185" height="30" as="geometry"/>
                </mxCell>
                <mxCell id="lcj7LOPd5DflClwkAGSy-43" value="Delete Product" style="text;strokeColor=none;fillColor=none;align=left;verticalAlign=middle;spacingLeft=4;spacingRight=4;overflow=hidden;points=[[0,0.5],[1,0.5]];portConstraint=eastwest;rotatable=0;whiteSpace=wrap;html=1;fontStyle=1;labelBackgroundColor=#FFD966;" parent="lcj7LOPd5DflClwkAGSy-18" vertex="1">
                    <mxGeometry y="300" width="185" height="30" as="geometry"/>
                </mxCell>
                <mxCell id="lcj7LOPd5DflClwkAGSy-26" value="Cancel" style="text;strokeColor=none;fillColor=none;align=left;verticalAlign=middle;spacingLeft=4;spacingRight=4;overflow=hidden;points=[[0,0.5],[1,0.5]];portConstraint=eastwest;rotatable=0;whiteSpace=wrap;html=1;fontStyle=1;labelBackgroundColor=#FFD966;" parent="lcj7LOPd5DflClwkAGSy-18" vertex="1">
                    <mxGeometry y="330" width="185" height="30" as="geometry"/>
                </mxCell>
                <mxCell id="lcj7LOPd5DflClwkAGSy-27" style="edgeStyle=orthogonalEdgeStyle;rounded=0;orthogonalLoop=1;jettySize=auto;html=1;" parent="1" source="lcj7LOPd5DflClwkAGSy-17" target="lcj7LOPd5DflClwkAGSy-18" edge="1">
                    <mxGeometry relative="1" as="geometry"/>
                </mxCell>
                <mxCell id="lcj7LOPd5DflClwkAGSy-29" value="&lt;b style=&quot;text-align: left; background-color: rgb(255, 102, 102);&quot;&gt;Supplier Details&lt;/b&gt;" style="swimlane;fontStyle=0;childLayout=stackLayout;horizontal=1;startSize=30;horizontalStack=0;resizeParent=1;resizeParentMax=0;resizeLast=0;collapsible=1;marginBottom=0;whiteSpace=wrap;html=1;fontColor=#000000;" parent="1" vertex="1">
                    <mxGeometry x="1010" y="290" width="140" height="360" as="geometry"/>
                </mxCell>
                <mxCell id="lcj7LOPd5DflClwkAGSy-30" value="Supplier Name" style="text;strokeColor=none;fillColor=none;align=left;verticalAlign=middle;spacingLeft=4;spacingRight=4;overflow=hidden;points=[[0,0.5],[1,0.5]];portConstraint=eastwest;rotatable=0;whiteSpace=wrap;html=1;" parent="lcj7LOPd5DflClwkAGSy-29" vertex="1">
                    <mxGeometry y="30" width="140" height="30" as="geometry"/>
                </mxCell>
                <mxCell id="lcj7LOPd5DflClwkAGSy-31" value="Contact Person Name" style="text;strokeColor=none;fillColor=none;align=left;verticalAlign=middle;spacingLeft=4;spacingRight=4;overflow=hidden;points=[[0,0.5],[1,0.5]];portConstraint=eastwest;rotatable=0;whiteSpace=wrap;html=1;" parent="lcj7LOPd5DflClwkAGSy-29" vertex="1">
                    <mxGeometry y="60" width="140" height="30" as="geometry"/>
                </mxCell>
                <mxCell id="lcj7LOPd5DflClwkAGSy-32" value="Supplier Currency" style="text;strokeColor=none;fillColor=none;align=left;verticalAlign=middle;spacingLeft=4;spacingRight=4;overflow=hidden;points=[[0,0.5],[1,0.5]];portConstraint=eastwest;rotatable=0;whiteSpace=wrap;html=1;" parent="lcj7LOPd5DflClwkAGSy-29" vertex="1">
                    <mxGeometry y="90" width="140" height="30" as="geometry"/>
                </mxCell>
                <mxCell id="lcj7LOPd5DflClwkAGSy-33" value="Supplier Contact" style="text;strokeColor=none;fillColor=none;align=left;verticalAlign=middle;spacingLeft=4;spacingRight=4;overflow=hidden;points=[[0,0.5],[1,0.5]];portConstraint=eastwest;rotatable=0;whiteSpace=wrap;html=1;" parent="lcj7LOPd5DflClwkAGSy-29" vertex="1">
                    <mxGeometry y="120" width="140" height="30" as="geometry"/>
                </mxCell>
                <mxCell id="lcj7LOPd5DflClwkAGSy-34" value="Supplier Email" style="text;strokeColor=none;fillColor=none;align=left;verticalAlign=middle;spacingLeft=4;spacingRight=4;overflow=hidden;points=[[0,0.5],[1,0.5]];portConstraint=eastwest;rotatable=0;whiteSpace=wrap;html=1;" parent="lcj7LOPd5DflClwkAGSy-29" vertex="1">
                    <mxGeometry y="150" width="140" height="30" as="geometry"/>
                </mxCell>
                <mxCell id="lcj7LOPd5DflClwkAGSy-35" value="Supplier Address" style="text;strokeColor=none;fillColor=none;align=left;verticalAlign=middle;spacingLeft=4;spacingRight=4;overflow=hidden;points=[[0,0.5],[1,0.5]];portConstraint=eastwest;rotatable=0;whiteSpace=wrap;html=1;" parent="lcj7LOPd5DflClwkAGSy-29" vertex="1">
                    <mxGeometry y="180" width="140" height="30" as="geometry"/>
                </mxCell>
                <mxCell id="lcj7LOPd5DflClwkAGSy-36" value="Supplier Country" style="text;strokeColor=none;fillColor=none;align=left;verticalAlign=middle;spacingLeft=4;spacingRight=4;overflow=hidden;points=[[0,0.5],[1,0.5]];portConstraint=eastwest;rotatable=0;whiteSpace=wrap;html=1;" parent="lcj7LOPd5DflClwkAGSy-29" vertex="1">
                    <mxGeometry y="210" width="140" height="30" as="geometry"/>
                </mxCell>
                <mxCell id="lcj7LOPd5DflClwkAGSy-37" value="Supplier State" style="text;strokeColor=none;fillColor=none;align=left;verticalAlign=middle;spacingLeft=4;spacingRight=4;overflow=hidden;points=[[0,0.5],[1,0.5]];portConstraint=eastwest;rotatable=0;whiteSpace=wrap;html=1;" parent="lcj7LOPd5DflClwkAGSy-29" vertex="1">
                    <mxGeometry y="240" width="140" height="30" as="geometry"/>
                </mxCell>
                <mxCell id="lcj7LOPd5DflClwkAGSy-38" value="Supplier City" style="text;strokeColor=none;fillColor=none;align=left;verticalAlign=middle;spacingLeft=4;spacingRight=4;overflow=hidden;points=[[0,0.5],[1,0.5]];portConstraint=eastwest;rotatable=0;whiteSpace=wrap;html=1;" parent="lcj7LOPd5DflClwkAGSy-29" vertex="1">
                    <mxGeometry y="270" width="140" height="30" as="geometry"/>
                </mxCell>
                <mxCell id="lcj7LOPd5DflClwkAGSy-39" value="Supplier Pin Code" style="text;strokeColor=none;fillColor=none;align=left;verticalAlign=middle;spacingLeft=4;spacingRight=4;overflow=hidden;points=[[0,0.5],[1,0.5]];portConstraint=eastwest;rotatable=0;whiteSpace=wrap;html=1;" parent="lcj7LOPd5DflClwkAGSy-29" vertex="1">
                    <mxGeometry y="300" width="140" height="30" as="geometry"/>
                </mxCell>
                <mxCell id="lcj7LOPd5DflClwkAGSy-40" value="Supplier Currency" style="text;strokeColor=none;fillColor=none;align=left;verticalAlign=middle;spacingLeft=4;spacingRight=4;overflow=hidden;points=[[0,0.5],[1,0.5]];portConstraint=eastwest;rotatable=0;whiteSpace=wrap;html=1;" parent="lcj7LOPd5DflClwkAGSy-29" vertex="1">
                    <mxGeometry y="330" width="140" height="30" as="geometry"/>
                </mxCell>
                <mxCell id="lcj7LOPd5DflClwkAGSy-41" style="edgeStyle=orthogonalEdgeStyle;rounded=0;orthogonalLoop=1;jettySize=auto;html=1;" parent="1" source="lcj7LOPd5DflClwkAGSy-24" target="lcj7LOPd5DflClwkAGSy-29" edge="1">
                    <mxGeometry relative="1" as="geometry"/>
                </mxCell>
                <mxCell id="lcj7LOPd5DflClwkAGSy-45" value="&lt;span style=&quot;font-weight: 700; text-align: left; background-color: rgb(153, 153, 255);&quot;&gt;Status Options&lt;/span&gt;" style="swimlane;fontStyle=0;childLayout=stackLayout;horizontal=1;startSize=30;horizontalStack=0;resizeParent=1;resizeParentMax=0;resizeLast=0;collapsible=1;marginBottom=0;whiteSpace=wrap;html=1;fontColor=#000000;" parent="1" vertex="1">
                    <mxGeometry x="550" y="885" width="185" height="120" as="geometry"/>
                </mxCell>
                <mxCell id="lcj7LOPd5DflClwkAGSy-46" value="Unfulfilled" style="text;strokeColor=none;fillColor=none;align=left;verticalAlign=middle;spacingLeft=4;spacingRight=4;overflow=hidden;points=[[0,0.5],[1,0.5]];portConstraint=eastwest;rotatable=0;whiteSpace=wrap;html=1;" parent="lcj7LOPd5DflClwkAGSy-45" vertex="1">
                    <mxGeometry y="30" width="185" height="30" as="geometry"/>
                </mxCell>
                <mxCell id="lcj7LOPd5DflClwkAGSy-47" value="Partially Fulfilled" style="text;strokeColor=none;fillColor=none;align=left;verticalAlign=middle;spacingLeft=4;spacingRight=4;overflow=hidden;points=[[0,0.5],[1,0.5]];portConstraint=eastwest;rotatable=0;whiteSpace=wrap;html=1;" parent="lcj7LOPd5DflClwkAGSy-45" vertex="1">
                    <mxGeometry y="60" width="185" height="30" as="geometry"/>
                </mxCell>
                <mxCell id="lcj7LOPd5DflClwkAGSy-48" value="Fulfilled" style="text;strokeColor=none;fillColor=none;align=left;verticalAlign=middle;spacingLeft=4;spacingRight=4;overflow=hidden;points=[[0,0.5],[1,0.5]];portConstraint=eastwest;rotatable=0;whiteSpace=wrap;html=1;" parent="lcj7LOPd5DflClwkAGSy-45" vertex="1">
                    <mxGeometry y="90" width="185" height="30" as="geometry"/>
                </mxCell>
                <mxCell id="lcj7LOPd5DflClwkAGSy-57" style="edgeStyle=orthogonalEdgeStyle;rounded=0;orthogonalLoop=1;jettySize=auto;html=1;entryX=0.5;entryY=0;entryDx=0;entryDy=0;" parent="1" source="yoaOcqHaSxs_0SUbm4wB-45" target="lcj7LOPd5DflClwkAGSy-45" edge="1">
                    <mxGeometry relative="1" as="geometry"/>
                </mxCell>
                <mxCell id="lcj7LOPd5DflClwkAGSy-60" value="&lt;b style=&quot;text-align: left; background-color: rgb(255, 153, 255);&quot;&gt;Product List&lt;/b&gt;" style="swimlane;fontStyle=0;childLayout=stackLayout;horizontal=1;startSize=30;horizontalStack=0;resizeParent=1;resizeParentMax=0;resizeLast=0;collapsible=1;marginBottom=0;whiteSpace=wrap;html=1;fontColor=#000000;" parent="1" vertex="1">
                    <mxGeometry x="580" y="1115" width="185" height="480" as="geometry"/>
                </mxCell>
                <mxCell id="lcj7LOPd5DflClwkAGSy-118" value="&lt;b&gt;All From Table&lt;/b&gt;" style="text;strokeColor=none;fillColor=none;align=left;verticalAlign=middle;spacingLeft=4;spacingRight=4;overflow=hidden;points=[[0,0.5],[1,0.5]];portConstraint=eastwest;rotatable=0;whiteSpace=wrap;html=1;" parent="lcj7LOPd5DflClwkAGSy-60" vertex="1">
                    <mxGeometry y="30" width="185" height="30" as="geometry"/>
                </mxCell>
                <mxCell id="lcj7LOPd5DflClwkAGSy-99" value="SKU ID" style="text;strokeColor=none;fillColor=none;align=left;verticalAlign=middle;spacingLeft=4;spacingRight=4;overflow=hidden;points=[[0,0.5],[1,0.5]];portConstraint=eastwest;rotatable=0;whiteSpace=wrap;html=1;" parent="lcj7LOPd5DflClwkAGSy-60" vertex="1">
                    <mxGeometry y="60" width="185" height="30" as="geometry"/>
                </mxCell>
                <mxCell id="lcj7LOPd5DflClwkAGSy-61" value="Product Name" style="text;strokeColor=none;fillColor=none;align=left;verticalAlign=middle;spacingLeft=4;spacingRight=4;overflow=hidden;points=[[0,0.5],[1,0.5]];portConstraint=eastwest;rotatable=0;whiteSpace=wrap;html=1;" parent="lcj7LOPd5DflClwkAGSy-60" vertex="1">
                    <mxGeometry y="90" width="185" height="30" as="geometry"/>
                </mxCell>
                <mxCell id="lcj7LOPd5DflClwkAGSy-62" value="Order Quantity" style="text;strokeColor=none;fillColor=none;align=left;verticalAlign=middle;spacingLeft=4;spacingRight=4;overflow=hidden;points=[[0,0.5],[1,0.5]];portConstraint=eastwest;rotatable=0;whiteSpace=wrap;html=1;" parent="lcj7LOPd5DflClwkAGSy-60" vertex="1">
                    <mxGeometry y="120" width="185" height="30" as="geometry"/>
                </mxCell>
                <mxCell id="lcj7LOPd5DflClwkAGSy-70" value="Total Recieved Quantity" style="text;strokeColor=none;fillColor=none;align=left;verticalAlign=middle;spacingLeft=4;spacingRight=4;overflow=hidden;points=[[0,0.5],[1,0.5]];portConstraint=eastwest;rotatable=0;whiteSpace=wrap;html=1;" parent="lcj7LOPd5DflClwkAGSy-60" vertex="1">
                    <mxGeometry y="150" width="185" height="30" as="geometry"/>
                </mxCell>
                <mxCell id="lcj7LOPd5DflClwkAGSy-98" value="Pending Quantity" style="text;strokeColor=none;fillColor=none;align=left;verticalAlign=middle;spacingLeft=4;spacingRight=4;overflow=hidden;points=[[0,0.5],[1,0.5]];portConstraint=eastwest;rotatable=0;whiteSpace=wrap;html=1;" parent="lcj7LOPd5DflClwkAGSy-60" vertex="1">
                    <mxGeometry y="180" width="185" height="30" as="geometry"/>
                </mxCell>
                <mxCell id="lcj7LOPd5DflClwkAGSy-72" value="&lt;b&gt;Supplier Details&lt;/b&gt;" style="text;strokeColor=none;fillColor=none;align=left;verticalAlign=middle;spacingLeft=4;spacingRight=4;overflow=hidden;points=[[0,0.5],[1,0.5]];portConstraint=eastwest;rotatable=0;whiteSpace=wrap;html=1;labelBackgroundColor=#FF6666;" parent="lcj7LOPd5DflClwkAGSy-60" vertex="1">
                    <mxGeometry y="210" width="185" height="30" as="geometry"/>
                </mxCell>
                <mxCell id="6DW21Ch75TktfgpjDAuI-15" value="&lt;b style=&quot;background-color: rgb(153, 255, 153);&quot;&gt;Cost Structure&lt;/b&gt;" style="text;strokeColor=none;fillColor=none;align=left;verticalAlign=middle;spacingLeft=4;spacingRight=4;overflow=hidden;points=[[0,0.5],[1,0.5]];portConstraint=eastwest;rotatable=0;whiteSpace=wrap;html=1;labelBackgroundColor=#FF6666;" parent="lcj7LOPd5DflClwkAGSy-60" vertex="1">
                    <mxGeometry y="240" width="185" height="30" as="geometry"/>
                </mxCell>
                <mxCell id="lcj7LOPd5DflClwkAGSy-71" value="&lt;span style=&quot;background-color: rgb(153, 255, 153);&quot;&gt;Recieved Track&lt;/span&gt;" style="text;strokeColor=none;fillColor=none;align=left;verticalAlign=middle;spacingLeft=4;spacingRight=4;overflow=hidden;points=[[0,0.5],[1,0.5]];portConstraint=eastwest;rotatable=0;whiteSpace=wrap;html=1;fontStyle=1" parent="lcj7LOPd5DflClwkAGSy-60" vertex="1">
                    <mxGeometry y="270" width="185" height="30" as="geometry"/>
                </mxCell>
                <mxCell id="lcj7LOPd5DflClwkAGSy-116" value="&lt;b style=&quot;background-color: rgb(103, 171, 159);&quot;&gt;Add New Recieved Qty&lt;/b&gt;" style="text;strokeColor=none;fillColor=none;align=left;verticalAlign=middle;spacingLeft=4;spacingRight=4;overflow=hidden;points=[[0,0.5],[1,0.5]];portConstraint=eastwest;rotatable=0;whiteSpace=wrap;html=1;" parent="lcj7LOPd5DflClwkAGSy-60" vertex="1">
                    <mxGeometry y="300" width="185" height="30" as="geometry"/>
                </mxCell>
                <mxCell id="lcj7LOPd5DflClwkAGSy-63" value="Barcode" style="text;strokeColor=none;fillColor=none;align=left;verticalAlign=middle;spacingLeft=4;spacingRight=4;overflow=hidden;points=[[0,0.5],[1,0.5]];portConstraint=eastwest;rotatable=0;whiteSpace=wrap;html=1;" parent="lcj7LOPd5DflClwkAGSy-60" vertex="1">
                    <mxGeometry y="330" width="185" height="30" as="geometry"/>
                </mxCell>
                <mxCell id="lcj7LOPd5DflClwkAGSy-64" value="Purchase Cost -&amp;gt; Per SKU" style="text;strokeColor=none;fillColor=none;align=left;verticalAlign=middle;spacingLeft=4;spacingRight=4;overflow=hidden;points=[[0,0.5],[1,0.5]];portConstraint=eastwest;rotatable=0;whiteSpace=wrap;html=1;" parent="lcj7LOPd5DflClwkAGSy-60" vertex="1">
                    <mxGeometry y="360" width="185" height="30" as="geometry"/>
                </mxCell>
                <mxCell id="n68UF_-MUVvqjUCe3lZR-3" value="Source_Code (For warehouse)" style="text;strokeColor=none;fillColor=none;align=left;verticalAlign=middle;spacingLeft=4;spacingRight=4;overflow=hidden;points=[[0,0.5],[1,0.5]];portConstraint=eastwest;rotatable=0;whiteSpace=wrap;html=1;" parent="lcj7LOPd5DflClwkAGSy-60" vertex="1">
                    <mxGeometry y="390" width="185" height="30" as="geometry"/>
                </mxCell>
                <mxCell id="lcj7LOPd5DflClwkAGSy-120" value="Total Cost per Product" style="text;strokeColor=none;fillColor=none;align=left;verticalAlign=middle;spacingLeft=4;spacingRight=4;overflow=hidden;points=[[0,0.5],[1,0.5]];portConstraint=eastwest;rotatable=0;whiteSpace=wrap;html=1;" parent="lcj7LOPd5DflClwkAGSy-60" vertex="1">
                    <mxGeometry y="420" width="185" height="30" as="geometry"/>
                </mxCell>
                <mxCell id="lcj7LOPd5DflClwkAGSy-68" value="Cancel" style="text;strokeColor=none;fillColor=none;align=left;verticalAlign=middle;spacingLeft=4;spacingRight=4;overflow=hidden;points=[[0,0.5],[1,0.5]];portConstraint=eastwest;rotatable=0;whiteSpace=wrap;html=1;fontStyle=1;labelBackgroundColor=#FFD966;" parent="lcj7LOPd5DflClwkAGSy-60" vertex="1">
                    <mxGeometry y="450" width="185" height="30" as="geometry"/>
                </mxCell>
                <mxCell id="lcj7LOPd5DflClwkAGSy-69" style="edgeStyle=orthogonalEdgeStyle;rounded=0;orthogonalLoop=1;jettySize=auto;html=1;" parent="1" source="kTVfm1OgH7Nki4kQpCt1-3" target="lcj7LOPd5DflClwkAGSy-60" edge="1">
                    <mxGeometry relative="1" as="geometry"/>
                </mxCell>
                <mxCell id="lcj7LOPd5DflClwkAGSy-73" value="&lt;b style=&quot;text-align: left; background-color: rgb(255, 102, 102);&quot;&gt;Supplier Details&lt;/b&gt;" style="swimlane;fontStyle=0;childLayout=stackLayout;horizontal=1;startSize=30;horizontalStack=0;resizeParent=1;resizeParentMax=0;resizeLast=0;collapsible=1;marginBottom=0;whiteSpace=wrap;html=1;fontColor=#000000;" parent="1" vertex="1">
                    <mxGeometry x="860" y="895" width="140" height="360" as="geometry"/>
                </mxCell>
                <mxCell id="lcj7LOPd5DflClwkAGSy-74" value="Supplier Name" style="text;strokeColor=none;fillColor=none;align=left;verticalAlign=middle;spacingLeft=4;spacingRight=4;overflow=hidden;points=[[0,0.5],[1,0.5]];portConstraint=eastwest;rotatable=0;whiteSpace=wrap;html=1;" parent="lcj7LOPd5DflClwkAGSy-73" vertex="1">
                    <mxGeometry y="30" width="140" height="30" as="geometry"/>
                </mxCell>
                <mxCell id="lcj7LOPd5DflClwkAGSy-75" value="Contact Person Name" style="text;strokeColor=none;fillColor=none;align=left;verticalAlign=middle;spacingLeft=4;spacingRight=4;overflow=hidden;points=[[0,0.5],[1,0.5]];portConstraint=eastwest;rotatable=0;whiteSpace=wrap;html=1;" parent="lcj7LOPd5DflClwkAGSy-73" vertex="1">
                    <mxGeometry y="60" width="140" height="30" as="geometry"/>
                </mxCell>
                <mxCell id="lcj7LOPd5DflClwkAGSy-76" value="Supplier Currency" style="text;strokeColor=none;fillColor=none;align=left;verticalAlign=middle;spacingLeft=4;spacingRight=4;overflow=hidden;points=[[0,0.5],[1,0.5]];portConstraint=eastwest;rotatable=0;whiteSpace=wrap;html=1;" parent="lcj7LOPd5DflClwkAGSy-73" vertex="1">
                    <mxGeometry y="90" width="140" height="30" as="geometry"/>
                </mxCell>
                <mxCell id="lcj7LOPd5DflClwkAGSy-77" value="Supplier Contact" style="text;strokeColor=none;fillColor=none;align=left;verticalAlign=middle;spacingLeft=4;spacingRight=4;overflow=hidden;points=[[0,0.5],[1,0.5]];portConstraint=eastwest;rotatable=0;whiteSpace=wrap;html=1;" parent="lcj7LOPd5DflClwkAGSy-73" vertex="1">
                    <mxGeometry y="120" width="140" height="30" as="geometry"/>
                </mxCell>
                <mxCell id="lcj7LOPd5DflClwkAGSy-78" value="Supplier Email" style="text;strokeColor=none;fillColor=none;align=left;verticalAlign=middle;spacingLeft=4;spacingRight=4;overflow=hidden;points=[[0,0.5],[1,0.5]];portConstraint=eastwest;rotatable=0;whiteSpace=wrap;html=1;" parent="lcj7LOPd5DflClwkAGSy-73" vertex="1">
                    <mxGeometry y="150" width="140" height="30" as="geometry"/>
                </mxCell>
                <mxCell id="lcj7LOPd5DflClwkAGSy-79" value="Supplier Address" style="text;strokeColor=none;fillColor=none;align=left;verticalAlign=middle;spacingLeft=4;spacingRight=4;overflow=hidden;points=[[0,0.5],[1,0.5]];portConstraint=eastwest;rotatable=0;whiteSpace=wrap;html=1;" parent="lcj7LOPd5DflClwkAGSy-73" vertex="1">
                    <mxGeometry y="180" width="140" height="30" as="geometry"/>
                </mxCell>
                <mxCell id="lcj7LOPd5DflClwkAGSy-80" value="Supplier Country" style="text;strokeColor=none;fillColor=none;align=left;verticalAlign=middle;spacingLeft=4;spacingRight=4;overflow=hidden;points=[[0,0.5],[1,0.5]];portConstraint=eastwest;rotatable=0;whiteSpace=wrap;html=1;" parent="lcj7LOPd5DflClwkAGSy-73" vertex="1">
                    <mxGeometry y="210" width="140" height="30" as="geometry"/>
                </mxCell>
                <mxCell id="lcj7LOPd5DflClwkAGSy-81" value="Supplier State" style="text;strokeColor=none;fillColor=none;align=left;verticalAlign=middle;spacingLeft=4;spacingRight=4;overflow=hidden;points=[[0,0.5],[1,0.5]];portConstraint=eastwest;rotatable=0;whiteSpace=wrap;html=1;" parent="lcj7LOPd5DflClwkAGSy-73" vertex="1">
                    <mxGeometry y="240" width="140" height="30" as="geometry"/>
                </mxCell>
                <mxCell id="lcj7LOPd5DflClwkAGSy-82" value="Supplier City" style="text;strokeColor=none;fillColor=none;align=left;verticalAlign=middle;spacingLeft=4;spacingRight=4;overflow=hidden;points=[[0,0.5],[1,0.5]];portConstraint=eastwest;rotatable=0;whiteSpace=wrap;html=1;" parent="lcj7LOPd5DflClwkAGSy-73" vertex="1">
                    <mxGeometry y="270" width="140" height="30" as="geometry"/>
                </mxCell>
                <mxCell id="lcj7LOPd5DflClwkAGSy-83" value="Supplier Pin Code" style="text;strokeColor=none;fillColor=none;align=left;verticalAlign=middle;spacingLeft=4;spacingRight=4;overflow=hidden;points=[[0,0.5],[1,0.5]];portConstraint=eastwest;rotatable=0;whiteSpace=wrap;html=1;" parent="lcj7LOPd5DflClwkAGSy-73" vertex="1">
                    <mxGeometry y="300" width="140" height="30" as="geometry"/>
                </mxCell>
                <mxCell id="lcj7LOPd5DflClwkAGSy-84" value="Supplier Currency" style="text;strokeColor=none;fillColor=none;align=left;verticalAlign=middle;spacingLeft=4;spacingRight=4;overflow=hidden;points=[[0,0.5],[1,0.5]];portConstraint=eastwest;rotatable=0;whiteSpace=wrap;html=1;" parent="lcj7LOPd5DflClwkAGSy-73" vertex="1">
                    <mxGeometry y="330" width="140" height="30" as="geometry"/>
                </mxCell>
                <mxCell id="lcj7LOPd5DflClwkAGSy-85" style="edgeStyle=orthogonalEdgeStyle;rounded=0;orthogonalLoop=1;jettySize=auto;html=1;entryX=0.5;entryY=0;entryDx=0;entryDy=0;" parent="1" source="lcj7LOPd5DflClwkAGSy-72" target="lcj7LOPd5DflClwkAGSy-73" edge="1">
                    <mxGeometry relative="1" as="geometry"/>
                </mxCell>
                <mxCell id="lcj7LOPd5DflClwkAGSy-86" value="&lt;span style=&quot;font-weight: 700; text-align: left; background-color: rgb(153, 255, 153);&quot;&gt;Recieved Track&lt;/span&gt;" style="swimlane;fontStyle=0;childLayout=stackLayout;horizontal=1;startSize=30;horizontalStack=0;resizeParent=1;resizeParentMax=0;resizeLast=0;collapsible=1;marginBottom=0;whiteSpace=wrap;html=1;fontColor=#000000;" parent="1" vertex="1">
                    <mxGeometry x="890" y="1450" width="200" height="330" as="geometry"/>
                </mxCell>
                <mxCell id="lcj7LOPd5DflClwkAGSy-87" value="Entry Number" style="text;strokeColor=none;fillColor=none;align=left;verticalAlign=middle;spacingLeft=4;spacingRight=4;overflow=hidden;points=[[0,0.5],[1,0.5]];portConstraint=eastwest;rotatable=0;whiteSpace=wrap;html=1;" parent="lcj7LOPd5DflClwkAGSy-86" vertex="1">
                    <mxGeometry y="30" width="200" height="30" as="geometry"/>
                </mxCell>
                <mxCell id="lcj7LOPd5DflClwkAGSy-88" value="Product Name" style="text;strokeColor=none;fillColor=none;align=left;verticalAlign=middle;spacingLeft=4;spacingRight=4;overflow=hidden;points=[[0,0.5],[1,0.5]];portConstraint=eastwest;rotatable=0;whiteSpace=wrap;html=1;" parent="lcj7LOPd5DflClwkAGSy-86" vertex="1">
                    <mxGeometry y="60" width="200" height="30" as="geometry"/>
                </mxCell>
                <mxCell id="lcj7LOPd5DflClwkAGSy-101" value="SKU ID" style="text;strokeColor=none;fillColor=none;align=left;verticalAlign=middle;spacingLeft=4;spacingRight=4;overflow=hidden;points=[[0,0.5],[1,0.5]];portConstraint=eastwest;rotatable=0;whiteSpace=wrap;html=1;" parent="lcj7LOPd5DflClwkAGSy-86" vertex="1">
                    <mxGeometry y="90" width="200" height="30" as="geometry"/>
                </mxCell>
                <mxCell id="lcj7LOPd5DflClwkAGSy-89" value="Quantity Recieved" style="text;strokeColor=none;fillColor=none;align=left;verticalAlign=middle;spacingLeft=4;spacingRight=4;overflow=hidden;points=[[0,0.5],[1,0.5]];portConstraint=eastwest;rotatable=0;whiteSpace=wrap;html=1;" parent="lcj7LOPd5DflClwkAGSy-86" vertex="1">
                    <mxGeometry y="120" width="200" height="30" as="geometry"/>
                </mxCell>
                <mxCell id="lcj7LOPd5DflClwkAGSy-105" value="Purchase Cost -&amp;gt; Per SKU" style="text;strokeColor=none;fillColor=none;align=left;verticalAlign=middle;spacingLeft=4;spacingRight=4;overflow=hidden;points=[[0,0.5],[1,0.5]];portConstraint=eastwest;rotatable=0;whiteSpace=wrap;html=1;" parent="lcj7LOPd5DflClwkAGSy-86" vertex="1">
                    <mxGeometry y="150" width="200" height="30" as="geometry"/>
                </mxCell>
                <mxCell id="lcj7LOPd5DflClwkAGSy-104" value="Barcode" style="text;strokeColor=none;fillColor=none;align=left;verticalAlign=middle;spacingLeft=4;spacingRight=4;overflow=hidden;points=[[0,0.5],[1,0.5]];portConstraint=eastwest;rotatable=0;whiteSpace=wrap;html=1;" parent="lcj7LOPd5DflClwkAGSy-86" vertex="1">
                    <mxGeometry y="180" width="200" height="30" as="geometry"/>
                </mxCell>
                <mxCell id="lcj7LOPd5DflClwkAGSy-107" value="Date of Entry" style="text;strokeColor=none;fillColor=none;align=left;verticalAlign=middle;spacingLeft=4;spacingRight=4;overflow=hidden;points=[[0,0.5],[1,0.5]];portConstraint=eastwest;rotatable=0;whiteSpace=wrap;html=1;" parent="lcj7LOPd5DflClwkAGSy-86" vertex="1">
                    <mxGeometry y="210" width="200" height="30" as="geometry"/>
                </mxCell>
                <mxCell id="lcj7LOPd5DflClwkAGSy-103" value="&lt;b style=&quot;background-color: rgb(103, 171, 159);&quot;&gt;Add New Recieved Qty&lt;/b&gt;" style="text;strokeColor=none;fillColor=none;align=left;verticalAlign=middle;spacingLeft=4;spacingRight=4;overflow=hidden;points=[[0,0.5],[1,0.5]];portConstraint=eastwest;rotatable=0;whiteSpace=wrap;html=1;" parent="lcj7LOPd5DflClwkAGSy-86" vertex="1">
                    <mxGeometry y="240" width="200" height="30" as="geometry"/>
                </mxCell>
                <mxCell id="lcj7LOPd5DflClwkAGSy-102" value="&lt;b&gt;Delete&lt;/b&gt;" style="text;strokeColor=none;fillColor=none;align=left;verticalAlign=middle;spacingLeft=4;spacingRight=4;overflow=hidden;points=[[0,0.5],[1,0.5]];portConstraint=eastwest;rotatable=0;whiteSpace=wrap;html=1;labelBackgroundColor=#FFD966;" parent="lcj7LOPd5DflClwkAGSy-86" vertex="1">
                    <mxGeometry y="270" width="200" height="30" as="geometry"/>
                </mxCell>
                <mxCell id="lcj7LOPd5DflClwkAGSy-108" value="Edit" style="text;strokeColor=none;fillColor=none;align=left;verticalAlign=middle;spacingLeft=4;spacingRight=4;overflow=hidden;points=[[0,0.5],[1,0.5]];portConstraint=eastwest;rotatable=0;whiteSpace=wrap;html=1;fontStyle=1;labelBackgroundColor=#FFD966;" parent="lcj7LOPd5DflClwkAGSy-86" vertex="1">
                    <mxGeometry y="300" width="200" height="30" as="geometry"/>
                </mxCell>
                <mxCell id="lcj7LOPd5DflClwkAGSy-110" style="edgeStyle=orthogonalEdgeStyle;rounded=0;orthogonalLoop=1;jettySize=auto;html=1;" parent="1" source="lcj7LOPd5DflClwkAGSy-71" target="lcj7LOPd5DflClwkAGSy-86" edge="1">
                    <mxGeometry relative="1" as="geometry">
                        <Array as="points">
                            <mxPoint x="970" y="1400"/>
                        </Array>
                    </mxGeometry>
                </mxCell>
                <mxCell id="lcj7LOPd5DflClwkAGSy-115" value="" style="edgeStyle=orthogonalEdgeStyle;rounded=0;orthogonalLoop=1;jettySize=auto;html=1;" parent="1" source="lcj7LOPd5DflClwkAGSy-112" target="lcj7LOPd5DflClwkAGSy-114" edge="1">
                    <mxGeometry relative="1" as="geometry"/>
                </mxCell>
                <mxCell id="lcj7LOPd5DflClwkAGSy-112" value="Add quantity" style="rounded=1;whiteSpace=wrap;html=1;" parent="1" vertex="1">
                    <mxGeometry x="500" y="1630" width="120" height="60" as="geometry"/>
                </mxCell>
                <mxCell id="lcj7LOPd5DflClwkAGSy-113" style="edgeStyle=orthogonalEdgeStyle;rounded=0;orthogonalLoop=1;jettySize=auto;html=1;" parent="1" source="lcj7LOPd5DflClwkAGSy-103" target="lcj7LOPd5DflClwkAGSy-112" edge="1">
                    <mxGeometry relative="1" as="geometry"/>
                </mxCell>
                <mxCell id="lcj7LOPd5DflClwkAGSy-114" value="Confirm" style="rounded=1;whiteSpace=wrap;html=1;" parent="1" vertex="1">
                    <mxGeometry x="500" y="1735" width="120" height="60" as="geometry"/>
                </mxCell>
                <mxCell id="lcj7LOPd5DflClwkAGSy-117" style="edgeStyle=orthogonalEdgeStyle;rounded=0;orthogonalLoop=1;jettySize=auto;html=1;" parent="1" source="lcj7LOPd5DflClwkAGSy-116" target="lcj7LOPd5DflClwkAGSy-112" edge="1">
                    <mxGeometry relative="1" as="geometry"/>
                </mxCell>
                <mxCell id="lcj7LOPd5DflClwkAGSy-128" value="" style="edgeStyle=orthogonalEdgeStyle;rounded=0;orthogonalLoop=1;jettySize=auto;html=1;" parent="1" source="lcj7LOPd5DflClwkAGSy-125" target="lcj7LOPd5DflClwkAGSy-127" edge="1">
                    <mxGeometry relative="1" as="geometry"/>
                </mxCell>
                <mxCell id="lcj7LOPd5DflClwkAGSy-125" value="Close PO&lt;br&gt;&lt;br&gt;Closing PO will assume all products are recieved. Do you want to continue?" style="rounded=1;whiteSpace=wrap;html=1;" parent="1" vertex="1">
                    <mxGeometry x="208" y="1355" width="217.5" height="60" as="geometry"/>
                </mxCell>
                <mxCell id="lcj7LOPd5DflClwkAGSy-126" style="edgeStyle=orthogonalEdgeStyle;rounded=0;orthogonalLoop=1;jettySize=auto;html=1;" parent="1" source="lcj7LOPd5DflClwkAGSy-124" target="lcj7LOPd5DflClwkAGSy-125" edge="1">
                    <mxGeometry relative="1" as="geometry"/>
                </mxCell>
                <mxCell id="lcj7LOPd5DflClwkAGSy-127" value="Close PO" style="rounded=1;whiteSpace=wrap;html=1;" parent="1" vertex="1">
                    <mxGeometry x="208.75" y="1455" width="217.5" height="60" as="geometry"/>
                </mxCell>
                <mxCell id="lcj7LOPd5DflClwkAGSy-129" value="Open POs" style="rounded=1;whiteSpace=wrap;html=1;fillColor=#f8cecc;strokeColor=#b85450;fontColor=#121212;" parent="1" vertex="1">
                    <mxGeometry x="270" y="140" width="120" height="60" as="geometry"/>
                </mxCell>
                <mxCell id="lcj7LOPd5DflClwkAGSy-130" value="Closed POs" style="rounded=1;whiteSpace=wrap;html=1;fillColor=#d5e8d4;strokeColor=#82b366;fontColor=#121212;" parent="1" vertex="1">
                    <mxGeometry x="480" y="140" width="120" height="60" as="geometry"/>
                </mxCell>
                <mxCell id="lcj7LOPd5DflClwkAGSy-136" style="edgeStyle=orthogonalEdgeStyle;rounded=0;orthogonalLoop=1;jettySize=auto;html=1;entryX=0;entryY=0.5;entryDx=0;entryDy=0;" parent="1" target="lcj7LOPd5DflClwkAGSy-139" edge="1">
                    <mxGeometry relative="1" as="geometry">
                        <Array as="points">
                            <mxPoint x="1530" y="410"/>
                        </Array>
                        <mxPoint x="1530" y="510" as="sourcePoint"/>
                    </mxGeometry>
                </mxCell>
                <mxCell id="lcj7LOPd5DflClwkAGSy-138" style="edgeStyle=orthogonalEdgeStyle;rounded=0;orthogonalLoop=1;jettySize=auto;html=1;" parent="1" target="lcj7LOPd5DflClwkAGSy-142" edge="1">
                    <mxGeometry relative="1" as="geometry">
                        <mxPoint x="1590" y="540" as="sourcePoint"/>
                    </mxGeometry>
                </mxCell>
                <mxCell id="lcj7LOPd5DflClwkAGSy-139" value="Search &amp;amp; Filters" style="rounded=1;whiteSpace=wrap;html=1;" parent="1" vertex="1">
                    <mxGeometry x="1650" y="380" width="120" height="60" as="geometry"/>
                </mxCell>
                <mxCell id="lcj7LOPd5DflClwkAGSy-142" value="Table" style="swimlane;fontStyle=0;childLayout=stackLayout;horizontal=1;startSize=30;horizontalStack=0;resizeParent=1;resizeParentMax=0;resizeLast=0;collapsible=1;marginBottom=0;whiteSpace=wrap;html=1;" parent="1" vertex="1">
                    <mxGeometry x="1655" y="785" width="185" height="300" as="geometry"/>
                </mxCell>
                <mxCell id="lcj7LOPd5DflClwkAGSy-143" value="Purchase Order ID" style="text;strokeColor=none;fillColor=none;align=left;verticalAlign=middle;spacingLeft=4;spacingRight=4;overflow=hidden;points=[[0,0.5],[1,0.5]];portConstraint=eastwest;rotatable=0;whiteSpace=wrap;html=1;" parent="lcj7LOPd5DflClwkAGSy-142" vertex="1">
                    <mxGeometry y="30" width="185" height="30" as="geometry"/>
                </mxCell>
                <mxCell id="lcj7LOPd5DflClwkAGSy-144" value="Date Created" style="text;strokeColor=none;fillColor=none;align=left;verticalAlign=middle;spacingLeft=4;spacingRight=4;overflow=hidden;points=[[0,0.5],[1,0.5]];portConstraint=eastwest;rotatable=0;whiteSpace=wrap;html=1;" parent="lcj7LOPd5DflClwkAGSy-142" vertex="1">
                    <mxGeometry y="60" width="185" height="30" as="geometry"/>
                </mxCell>
                <mxCell id="lcj7LOPd5DflClwkAGSy-145" value="&lt;span style=&quot;background-color: rgb(153, 153, 255);&quot;&gt;Status&lt;/span&gt;" style="text;strokeColor=none;fillColor=none;align=left;verticalAlign=middle;spacingLeft=4;spacingRight=4;overflow=hidden;points=[[0,0.5],[1,0.5]];portConstraint=eastwest;rotatable=0;whiteSpace=wrap;html=1;fontStyle=1" parent="lcj7LOPd5DflClwkAGSy-142" vertex="1">
                    <mxGeometry y="90" width="185" height="30" as="geometry"/>
                </mxCell>
                <mxCell id="lcj7LOPd5DflClwkAGSy-146" value="Last Updated Date" style="text;strokeColor=none;fillColor=none;align=left;verticalAlign=middle;spacingLeft=4;spacingRight=4;overflow=hidden;points=[[0,0.5],[1,0.5]];portConstraint=eastwest;rotatable=0;whiteSpace=wrap;html=1;" parent="lcj7LOPd5DflClwkAGSy-142" vertex="1">
                    <mxGeometry y="120" width="185" height="30" as="geometry"/>
                </mxCell>
                <mxCell id="lcj7LOPd5DflClwkAGSy-147" value="PO Value Total" style="text;strokeColor=none;fillColor=none;align=left;verticalAlign=middle;spacingLeft=4;spacingRight=4;overflow=hidden;points=[[0,0.5],[1,0.5]];portConstraint=eastwest;rotatable=0;whiteSpace=wrap;html=1;" parent="lcj7LOPd5DflClwkAGSy-142" vertex="1">
                    <mxGeometry y="150" width="185" height="30" as="geometry"/>
                </mxCell>
                <mxCell id="lcj7LOPd5DflClwkAGSy-148" value="&lt;b style=&quot;background-color: rgb(255, 153, 255);&quot;&gt;Product List&lt;/b&gt;" style="text;strokeColor=none;fillColor=none;align=left;verticalAlign=middle;spacingLeft=4;spacingRight=4;overflow=hidden;points=[[0,0.5],[1,0.5]];portConstraint=eastwest;rotatable=0;whiteSpace=wrap;html=1;labelBackgroundColor=#FF6666;" parent="lcj7LOPd5DflClwkAGSy-142" vertex="1">
                    <mxGeometry y="180" width="185" height="30" as="geometry"/>
                </mxCell>
                <mxCell id="lcj7LOPd5DflClwkAGSy-149" value="&lt;b&gt;Download PO&lt;/b&gt;" style="text;strokeColor=none;fillColor=none;align=left;verticalAlign=middle;spacingLeft=4;spacingRight=4;overflow=hidden;points=[[0,0.5],[1,0.5]];portConstraint=eastwest;rotatable=0;whiteSpace=wrap;html=1;labelBackgroundColor=#FF6666;" parent="lcj7LOPd5DflClwkAGSy-142" vertex="1">
                    <mxGeometry y="210" width="185" height="30" as="geometry"/>
                </mxCell>
                <mxCell id="lcj7LOPd5DflClwkAGSy-151" value="Edit" style="text;strokeColor=none;fillColor=none;align=left;verticalAlign=middle;spacingLeft=4;spacingRight=4;overflow=hidden;points=[[0,0.5],[1,0.5]];portConstraint=eastwest;rotatable=0;whiteSpace=wrap;html=1;fontStyle=1;labelBackgroundColor=#FFD966;" parent="lcj7LOPd5DflClwkAGSy-142" vertex="1">
                    <mxGeometry y="240" width="185" height="30" as="geometry"/>
                </mxCell>
                <mxCell id="lcj7LOPd5DflClwkAGSy-152" value="Delete" style="text;strokeColor=none;fillColor=none;align=left;verticalAlign=middle;spacingLeft=4;spacingRight=4;overflow=hidden;points=[[0,0.5],[1,0.5]];portConstraint=eastwest;rotatable=0;whiteSpace=wrap;html=1;fontStyle=1;labelBackgroundColor=#FFD966;" parent="lcj7LOPd5DflClwkAGSy-142" vertex="1">
                    <mxGeometry y="270" width="185" height="30" as="geometry"/>
                </mxCell>
                <mxCell id="lcj7LOPd5DflClwkAGSy-153" value="Closed POs" style="rounded=1;whiteSpace=wrap;html=1;fillColor=#d5e8d4;strokeColor=#82b366;" parent="1" vertex="1">
                    <mxGeometry x="1470" y="510" width="120" height="60" as="geometry"/>
                </mxCell>
                <mxCell id="lcj7LOPd5DflClwkAGSy-189" value="&lt;b style=&quot;text-align: left; background-color: rgb(255, 153, 255);&quot;&gt;Product List&lt;/b&gt;" style="swimlane;fontStyle=0;childLayout=stackLayout;horizontal=1;startSize=30;horizontalStack=0;resizeParent=1;resizeParentMax=0;resizeLast=0;collapsible=1;marginBottom=0;whiteSpace=wrap;html=1;fontColor=#000000;" parent="1" vertex="1">
                    <mxGeometry x="2010" y="1005" width="185" height="450" as="geometry"/>
                </mxCell>
                <mxCell id="lcj7LOPd5DflClwkAGSy-190" value="&lt;b&gt;All From Table&lt;/b&gt;" style="text;strokeColor=none;fillColor=none;align=left;verticalAlign=middle;spacingLeft=4;spacingRight=4;overflow=hidden;points=[[0,0.5],[1,0.5]];portConstraint=eastwest;rotatable=0;whiteSpace=wrap;html=1;" parent="lcj7LOPd5DflClwkAGSy-189" vertex="1">
                    <mxGeometry y="30" width="185" height="30" as="geometry"/>
                </mxCell>
                <mxCell id="lcj7LOPd5DflClwkAGSy-191" value="SKU ID" style="text;strokeColor=none;fillColor=none;align=left;verticalAlign=middle;spacingLeft=4;spacingRight=4;overflow=hidden;points=[[0,0.5],[1,0.5]];portConstraint=eastwest;rotatable=0;whiteSpace=wrap;html=1;" parent="lcj7LOPd5DflClwkAGSy-189" vertex="1">
                    <mxGeometry y="60" width="185" height="30" as="geometry"/>
                </mxCell>
                <mxCell id="lcj7LOPd5DflClwkAGSy-192" value="Product Name" style="text;strokeColor=none;fillColor=none;align=left;verticalAlign=middle;spacingLeft=4;spacingRight=4;overflow=hidden;points=[[0,0.5],[1,0.5]];portConstraint=eastwest;rotatable=0;whiteSpace=wrap;html=1;" parent="lcj7LOPd5DflClwkAGSy-189" vertex="1">
                    <mxGeometry y="90" width="185" height="30" as="geometry"/>
                </mxCell>
                <mxCell id="lcj7LOPd5DflClwkAGSy-193" value="Order Quantity" style="text;strokeColor=none;fillColor=none;align=left;verticalAlign=middle;spacingLeft=4;spacingRight=4;overflow=hidden;points=[[0,0.5],[1,0.5]];portConstraint=eastwest;rotatable=0;whiteSpace=wrap;html=1;" parent="lcj7LOPd5DflClwkAGSy-189" vertex="1">
                    <mxGeometry y="120" width="185" height="30" as="geometry"/>
                </mxCell>
                <mxCell id="lcj7LOPd5DflClwkAGSy-194" value="Total Recieved Quantity" style="text;strokeColor=none;fillColor=none;align=left;verticalAlign=middle;spacingLeft=4;spacingRight=4;overflow=hidden;points=[[0,0.5],[1,0.5]];portConstraint=eastwest;rotatable=0;whiteSpace=wrap;html=1;" parent="lcj7LOPd5DflClwkAGSy-189" vertex="1">
                    <mxGeometry y="150" width="185" height="30" as="geometry"/>
                </mxCell>
                <mxCell id="lcj7LOPd5DflClwkAGSy-195" value="Pending Quantity" style="text;strokeColor=none;fillColor=none;align=left;verticalAlign=middle;spacingLeft=4;spacingRight=4;overflow=hidden;points=[[0,0.5],[1,0.5]];portConstraint=eastwest;rotatable=0;whiteSpace=wrap;html=1;" parent="lcj7LOPd5DflClwkAGSy-189" vertex="1">
                    <mxGeometry y="180" width="185" height="30" as="geometry"/>
                </mxCell>
                <mxCell id="lcj7LOPd5DflClwkAGSy-196" value="&lt;b&gt;Supplier Details&lt;/b&gt;" style="text;strokeColor=none;fillColor=none;align=left;verticalAlign=middle;spacingLeft=4;spacingRight=4;overflow=hidden;points=[[0,0.5],[1,0.5]];portConstraint=eastwest;rotatable=0;whiteSpace=wrap;html=1;labelBackgroundColor=#FF6666;" parent="lcj7LOPd5DflClwkAGSy-189" vertex="1">
                    <mxGeometry y="210" width="185" height="30" as="geometry"/>
                </mxCell>
                <mxCell id="6DW21Ch75TktfgpjDAuI-24" value="&lt;b style=&quot;background-color: rgb(153, 255, 153);&quot;&gt;Cost Structure&lt;/b&gt;" style="text;strokeColor=none;fillColor=none;align=left;verticalAlign=middle;spacingLeft=4;spacingRight=4;overflow=hidden;points=[[0,0.5],[1,0.5]];portConstraint=eastwest;rotatable=0;whiteSpace=wrap;html=1;labelBackgroundColor=#FF6666;" parent="lcj7LOPd5DflClwkAGSy-189" vertex="1">
                    <mxGeometry y="240" width="185" height="30" as="geometry"/>
                </mxCell>
                <mxCell id="lcj7LOPd5DflClwkAGSy-197" value="&lt;span style=&quot;background-color: rgb(153, 255, 153);&quot;&gt;Recieved Track&lt;/span&gt;" style="text;strokeColor=none;fillColor=none;align=left;verticalAlign=middle;spacingLeft=4;spacingRight=4;overflow=hidden;points=[[0,0.5],[1,0.5]];portConstraint=eastwest;rotatable=0;whiteSpace=wrap;html=1;fontStyle=1" parent="lcj7LOPd5DflClwkAGSy-189" vertex="1">
                    <mxGeometry y="270" width="185" height="30" as="geometry"/>
                </mxCell>
                <mxCell id="lcj7LOPd5DflClwkAGSy-199" value="Barcode" style="text;strokeColor=none;fillColor=none;align=left;verticalAlign=middle;spacingLeft=4;spacingRight=4;overflow=hidden;points=[[0,0.5],[1,0.5]];portConstraint=eastwest;rotatable=0;whiteSpace=wrap;html=1;" parent="lcj7LOPd5DflClwkAGSy-189" vertex="1">
                    <mxGeometry y="300" width="185" height="30" as="geometry"/>
                </mxCell>
                <mxCell id="lcj7LOPd5DflClwkAGSy-200" value="Purchase Cost -&amp;gt; Per SKU" style="text;strokeColor=none;fillColor=none;align=left;verticalAlign=middle;spacingLeft=4;spacingRight=4;overflow=hidden;points=[[0,0.5],[1,0.5]];portConstraint=eastwest;rotatable=0;whiteSpace=wrap;html=1;" parent="lcj7LOPd5DflClwkAGSy-189" vertex="1">
                    <mxGeometry y="330" width="185" height="30" as="geometry"/>
                </mxCell>
                <mxCell id="lcj7LOPd5DflClwkAGSy-201" value="Total Cost per Product" style="text;strokeColor=none;fillColor=none;align=left;verticalAlign=middle;spacingLeft=4;spacingRight=4;overflow=hidden;points=[[0,0.5],[1,0.5]];portConstraint=eastwest;rotatable=0;whiteSpace=wrap;html=1;" parent="lcj7LOPd5DflClwkAGSy-189" vertex="1">
                    <mxGeometry y="360" width="185" height="30" as="geometry"/>
                </mxCell>
                <mxCell id="n68UF_-MUVvqjUCe3lZR-4" value="Source_Code (For warehouse)" style="text;strokeColor=none;fillColor=none;align=left;verticalAlign=middle;spacingLeft=4;spacingRight=4;overflow=hidden;points=[[0,0.5],[1,0.5]];portConstraint=eastwest;rotatable=0;whiteSpace=wrap;html=1;" parent="lcj7LOPd5DflClwkAGSy-189" vertex="1">
                    <mxGeometry y="390" width="185" height="30" as="geometry"/>
                </mxCell>
                <mxCell id="lcj7LOPd5DflClwkAGSy-202" value="Cancel" style="text;strokeColor=none;fillColor=none;align=left;verticalAlign=middle;spacingLeft=4;spacingRight=4;overflow=hidden;points=[[0,0.5],[1,0.5]];portConstraint=eastwest;rotatable=0;whiteSpace=wrap;html=1;fontStyle=1;labelBackgroundColor=#FFD966;" parent="lcj7LOPd5DflClwkAGSy-189" vertex="1">
                    <mxGeometry y="420" width="185" height="30" as="geometry"/>
                </mxCell>
                <mxCell id="lcj7LOPd5DflClwkAGSy-203" style="edgeStyle=orthogonalEdgeStyle;rounded=0;orthogonalLoop=1;jettySize=auto;html=1;" parent="1" source="lcj7LOPd5DflClwkAGSy-148" target="lcj7LOPd5DflClwkAGSy-189" edge="1">
                    <mxGeometry relative="1" as="geometry"/>
                </mxCell>
                <mxCell id="lcj7LOPd5DflClwkAGSy-204" value="&lt;b style=&quot;text-align: left; background-color: rgb(255, 102, 102);&quot;&gt;Supplier Details&lt;/b&gt;" style="swimlane;fontStyle=0;childLayout=stackLayout;horizontal=1;startSize=30;horizontalStack=0;resizeParent=1;resizeParentMax=0;resizeLast=0;collapsible=1;marginBottom=0;whiteSpace=wrap;html=1;fontColor=#000000;" parent="1" vertex="1">
                    <mxGeometry x="2290" y="785" width="140" height="360" as="geometry"/>
                </mxCell>
                <mxCell id="lcj7LOPd5DflClwkAGSy-205" value="Supplier Name" style="text;strokeColor=none;fillColor=none;align=left;verticalAlign=middle;spacingLeft=4;spacingRight=4;overflow=hidden;points=[[0,0.5],[1,0.5]];portConstraint=eastwest;rotatable=0;whiteSpace=wrap;html=1;" parent="lcj7LOPd5DflClwkAGSy-204" vertex="1">
                    <mxGeometry y="30" width="140" height="30" as="geometry"/>
                </mxCell>
                <mxCell id="lcj7LOPd5DflClwkAGSy-206" value="Contact Person Name" style="text;strokeColor=none;fillColor=none;align=left;verticalAlign=middle;spacingLeft=4;spacingRight=4;overflow=hidden;points=[[0,0.5],[1,0.5]];portConstraint=eastwest;rotatable=0;whiteSpace=wrap;html=1;" parent="lcj7LOPd5DflClwkAGSy-204" vertex="1">
                    <mxGeometry y="60" width="140" height="30" as="geometry"/>
                </mxCell>
                <mxCell id="lcj7LOPd5DflClwkAGSy-207" value="Supplier Currency" style="text;strokeColor=none;fillColor=none;align=left;verticalAlign=middle;spacingLeft=4;spacingRight=4;overflow=hidden;points=[[0,0.5],[1,0.5]];portConstraint=eastwest;rotatable=0;whiteSpace=wrap;html=1;" parent="lcj7LOPd5DflClwkAGSy-204" vertex="1">
                    <mxGeometry y="90" width="140" height="30" as="geometry"/>
                </mxCell>
                <mxCell id="lcj7LOPd5DflClwkAGSy-208" value="Supplier Contact" style="text;strokeColor=none;fillColor=none;align=left;verticalAlign=middle;spacingLeft=4;spacingRight=4;overflow=hidden;points=[[0,0.5],[1,0.5]];portConstraint=eastwest;rotatable=0;whiteSpace=wrap;html=1;" parent="lcj7LOPd5DflClwkAGSy-204" vertex="1">
                    <mxGeometry y="120" width="140" height="30" as="geometry"/>
                </mxCell>
                <mxCell id="lcj7LOPd5DflClwkAGSy-209" value="Supplier Email" style="text;strokeColor=none;fillColor=none;align=left;verticalAlign=middle;spacingLeft=4;spacingRight=4;overflow=hidden;points=[[0,0.5],[1,0.5]];portConstraint=eastwest;rotatable=0;whiteSpace=wrap;html=1;" parent="lcj7LOPd5DflClwkAGSy-204" vertex="1">
                    <mxGeometry y="150" width="140" height="30" as="geometry"/>
                </mxCell>
                <mxCell id="lcj7LOPd5DflClwkAGSy-210" value="Supplier Address" style="text;strokeColor=none;fillColor=none;align=left;verticalAlign=middle;spacingLeft=4;spacingRight=4;overflow=hidden;points=[[0,0.5],[1,0.5]];portConstraint=eastwest;rotatable=0;whiteSpace=wrap;html=1;" parent="lcj7LOPd5DflClwkAGSy-204" vertex="1">
                    <mxGeometry y="180" width="140" height="30" as="geometry"/>
                </mxCell>
                <mxCell id="lcj7LOPd5DflClwkAGSy-211" value="Supplier Country" style="text;strokeColor=none;fillColor=none;align=left;verticalAlign=middle;spacingLeft=4;spacingRight=4;overflow=hidden;points=[[0,0.5],[1,0.5]];portConstraint=eastwest;rotatable=0;whiteSpace=wrap;html=1;" parent="lcj7LOPd5DflClwkAGSy-204" vertex="1">
                    <mxGeometry y="210" width="140" height="30" as="geometry"/>
                </mxCell>
                <mxCell id="lcj7LOPd5DflClwkAGSy-212" value="Supplier State" style="text;strokeColor=none;fillColor=none;align=left;verticalAlign=middle;spacingLeft=4;spacingRight=4;overflow=hidden;points=[[0,0.5],[1,0.5]];portConstraint=eastwest;rotatable=0;whiteSpace=wrap;html=1;" parent="lcj7LOPd5DflClwkAGSy-204" vertex="1">
                    <mxGeometry y="240" width="140" height="30" as="geometry"/>
                </mxCell>
                <mxCell id="lcj7LOPd5DflClwkAGSy-213" value="Supplier City" style="text;strokeColor=none;fillColor=none;align=left;verticalAlign=middle;spacingLeft=4;spacingRight=4;overflow=hidden;points=[[0,0.5],[1,0.5]];portConstraint=eastwest;rotatable=0;whiteSpace=wrap;html=1;" parent="lcj7LOPd5DflClwkAGSy-204" vertex="1">
                    <mxGeometry y="270" width="140" height="30" as="geometry"/>
                </mxCell>
                <mxCell id="lcj7LOPd5DflClwkAGSy-214" value="Supplier Pin Code" style="text;strokeColor=none;fillColor=none;align=left;verticalAlign=middle;spacingLeft=4;spacingRight=4;overflow=hidden;points=[[0,0.5],[1,0.5]];portConstraint=eastwest;rotatable=0;whiteSpace=wrap;html=1;" parent="lcj7LOPd5DflClwkAGSy-204" vertex="1">
                    <mxGeometry y="300" width="140" height="30" as="geometry"/>
                </mxCell>
                <mxCell id="lcj7LOPd5DflClwkAGSy-215" value="Supplier Currency" style="text;strokeColor=none;fillColor=none;align=left;verticalAlign=middle;spacingLeft=4;spacingRight=4;overflow=hidden;points=[[0,0.5],[1,0.5]];portConstraint=eastwest;rotatable=0;whiteSpace=wrap;html=1;" parent="lcj7LOPd5DflClwkAGSy-204" vertex="1">
                    <mxGeometry y="330" width="140" height="30" as="geometry"/>
                </mxCell>
                <mxCell id="lcj7LOPd5DflClwkAGSy-216" style="edgeStyle=orthogonalEdgeStyle;rounded=0;orthogonalLoop=1;jettySize=auto;html=1;entryX=0.5;entryY=0;entryDx=0;entryDy=0;" parent="1" source="lcj7LOPd5DflClwkAGSy-196" target="lcj7LOPd5DflClwkAGSy-204" edge="1">
                    <mxGeometry relative="1" as="geometry"/>
                </mxCell>
                <mxCell id="lcj7LOPd5DflClwkAGSy-217" value="&lt;span style=&quot;font-weight: 700; text-align: left; background-color: rgb(153, 255, 153);&quot;&gt;Recieved Track&lt;/span&gt;" style="swimlane;fontStyle=0;childLayout=stackLayout;horizontal=1;startSize=30;horizontalStack=0;resizeParent=1;resizeParentMax=0;resizeLast=0;collapsible=1;marginBottom=0;whiteSpace=wrap;html=1;fontColor=#000000;" parent="1" vertex="1">
                    <mxGeometry x="2240" y="1465" width="200" height="300" as="geometry"/>
                </mxCell>
                <mxCell id="lcj7LOPd5DflClwkAGSy-218" value="Entry Number" style="text;strokeColor=none;fillColor=none;align=left;verticalAlign=middle;spacingLeft=4;spacingRight=4;overflow=hidden;points=[[0,0.5],[1,0.5]];portConstraint=eastwest;rotatable=0;whiteSpace=wrap;html=1;" parent="lcj7LOPd5DflClwkAGSy-217" vertex="1">
                    <mxGeometry y="30" width="200" height="30" as="geometry"/>
                </mxCell>
                <mxCell id="lcj7LOPd5DflClwkAGSy-219" value="Product Name" style="text;strokeColor=none;fillColor=none;align=left;verticalAlign=middle;spacingLeft=4;spacingRight=4;overflow=hidden;points=[[0,0.5],[1,0.5]];portConstraint=eastwest;rotatable=0;whiteSpace=wrap;html=1;" parent="lcj7LOPd5DflClwkAGSy-217" vertex="1">
                    <mxGeometry y="60" width="200" height="30" as="geometry"/>
                </mxCell>
                <mxCell id="lcj7LOPd5DflClwkAGSy-220" value="SKU ID" style="text;strokeColor=none;fillColor=none;align=left;verticalAlign=middle;spacingLeft=4;spacingRight=4;overflow=hidden;points=[[0,0.5],[1,0.5]];portConstraint=eastwest;rotatable=0;whiteSpace=wrap;html=1;" parent="lcj7LOPd5DflClwkAGSy-217" vertex="1">
                    <mxGeometry y="90" width="200" height="30" as="geometry"/>
                </mxCell>
                <mxCell id="lcj7LOPd5DflClwkAGSy-221" value="Quantity Recieved" style="text;strokeColor=none;fillColor=none;align=left;verticalAlign=middle;spacingLeft=4;spacingRight=4;overflow=hidden;points=[[0,0.5],[1,0.5]];portConstraint=eastwest;rotatable=0;whiteSpace=wrap;html=1;" parent="lcj7LOPd5DflClwkAGSy-217" vertex="1">
                    <mxGeometry y="120" width="200" height="30" as="geometry"/>
                </mxCell>
                <mxCell id="lcj7LOPd5DflClwkAGSy-222" value="Purchase Cost -&amp;gt; Per SKU" style="text;strokeColor=none;fillColor=none;align=left;verticalAlign=middle;spacingLeft=4;spacingRight=4;overflow=hidden;points=[[0,0.5],[1,0.5]];portConstraint=eastwest;rotatable=0;whiteSpace=wrap;html=1;" parent="lcj7LOPd5DflClwkAGSy-217" vertex="1">
                    <mxGeometry y="150" width="200" height="30" as="geometry"/>
                </mxCell>
                <mxCell id="lcj7LOPd5DflClwkAGSy-223" value="Barcode" style="text;strokeColor=none;fillColor=none;align=left;verticalAlign=middle;spacingLeft=4;spacingRight=4;overflow=hidden;points=[[0,0.5],[1,0.5]];portConstraint=eastwest;rotatable=0;whiteSpace=wrap;html=1;" parent="lcj7LOPd5DflClwkAGSy-217" vertex="1">
                    <mxGeometry y="180" width="200" height="30" as="geometry"/>
                </mxCell>
                <mxCell id="lcj7LOPd5DflClwkAGSy-224" value="Date of Entry" style="text;strokeColor=none;fillColor=none;align=left;verticalAlign=middle;spacingLeft=4;spacingRight=4;overflow=hidden;points=[[0,0.5],[1,0.5]];portConstraint=eastwest;rotatable=0;whiteSpace=wrap;html=1;" parent="lcj7LOPd5DflClwkAGSy-217" vertex="1">
                    <mxGeometry y="210" width="200" height="30" as="geometry"/>
                </mxCell>
                <mxCell id="lcj7LOPd5DflClwkAGSy-226" value="&lt;b&gt;Delete&lt;/b&gt;" style="text;strokeColor=none;fillColor=none;align=left;verticalAlign=middle;spacingLeft=4;spacingRight=4;overflow=hidden;points=[[0,0.5],[1,0.5]];portConstraint=eastwest;rotatable=0;whiteSpace=wrap;html=1;labelBackgroundColor=#FFD966;" parent="lcj7LOPd5DflClwkAGSy-217" vertex="1">
                    <mxGeometry y="240" width="200" height="30" as="geometry"/>
                </mxCell>
                <mxCell id="lcj7LOPd5DflClwkAGSy-227" value="Edit" style="text;strokeColor=none;fillColor=none;align=left;verticalAlign=middle;spacingLeft=4;spacingRight=4;overflow=hidden;points=[[0,0.5],[1,0.5]];portConstraint=eastwest;rotatable=0;whiteSpace=wrap;html=1;fontStyle=1;labelBackgroundColor=#FFD966;" parent="lcj7LOPd5DflClwkAGSy-217" vertex="1">
                    <mxGeometry y="270" width="200" height="30" as="geometry"/>
                </mxCell>
                <mxCell id="lcj7LOPd5DflClwkAGSy-228" style="edgeStyle=orthogonalEdgeStyle;rounded=0;orthogonalLoop=1;jettySize=auto;html=1;" parent="1" source="lcj7LOPd5DflClwkAGSy-197" target="lcj7LOPd5DflClwkAGSy-217" edge="1">
                    <mxGeometry relative="1" as="geometry">
                        <Array as="points">
                            <mxPoint x="2270" y="1290"/>
                        </Array>
                    </mxGeometry>
                </mxCell>
                <mxCell id="lcj7LOPd5DflClwkAGSy-238" value="PO Closed" style="rounded=1;whiteSpace=wrap;html=1;" parent="1" vertex="1">
                    <mxGeometry x="1960" y="820" width="120" height="60" as="geometry"/>
                </mxCell>
                <mxCell id="lcj7LOPd5DflClwkAGSy-239" style="edgeStyle=orthogonalEdgeStyle;rounded=0;orthogonalLoop=1;jettySize=auto;html=1;entryX=0;entryY=0.5;entryDx=0;entryDy=0;" parent="1" source="lcj7LOPd5DflClwkAGSy-145" target="lcj7LOPd5DflClwkAGSy-238" edge="1">
                    <mxGeometry relative="1" as="geometry"/>
                </mxCell>
                <mxCell id="6DW21Ch75TktfgpjDAuI-2" value="&lt;b style=&quot;text-align: left; background-color: rgb(153, 255, 153);&quot;&gt;Cost Structure&lt;/b&gt;" style="swimlane;fontStyle=0;childLayout=stackLayout;horizontal=1;startSize=30;horizontalStack=0;resizeParent=1;resizeParentMax=0;resizeLast=0;collapsible=1;marginBottom=0;whiteSpace=wrap;html=1;" parent="1" vertex="1">
                    <mxGeometry x="1010" y="670" width="140" height="210" as="geometry"/>
                </mxCell>
                <mxCell id="6DW21Ch75TktfgpjDAuI-4" value="Fixed cost total" style="text;strokeColor=none;fillColor=none;align=left;verticalAlign=middle;spacingLeft=4;spacingRight=4;overflow=hidden;points=[[0,0.5],[1,0.5]];portConstraint=eastwest;rotatable=0;whiteSpace=wrap;html=1;" parent="6DW21Ch75TktfgpjDAuI-2" vertex="1">
                    <mxGeometry y="30" width="140" height="30" as="geometry"/>
                </mxCell>
                <mxCell id="6DW21Ch75TktfgpjDAuI-5" value="Freight" style="text;strokeColor=none;fillColor=none;align=left;verticalAlign=middle;spacingLeft=4;spacingRight=4;overflow=hidden;points=[[0,0.5],[1,0.5]];portConstraint=eastwest;rotatable=0;whiteSpace=wrap;html=1;" parent="6DW21Ch75TktfgpjDAuI-2" vertex="1">
                    <mxGeometry y="60" width="140" height="30" as="geometry"/>
                </mxCell>
                <mxCell id="6DW21Ch75TktfgpjDAuI-6" value="Customs &amp;amp; MISC" style="text;strokeColor=none;fillColor=none;align=left;verticalAlign=middle;spacingLeft=4;spacingRight=4;overflow=hidden;points=[[0,0.5],[1,0.5]];portConstraint=eastwest;rotatable=0;whiteSpace=wrap;html=1;" parent="6DW21Ch75TktfgpjDAuI-2" vertex="1">
                    <mxGeometry y="90" width="140" height="30" as="geometry"/>
                </mxCell>
                <mxCell id="6DW21Ch75TktfgpjDAuI-7" value="Total Cost" style="text;strokeColor=none;fillColor=none;align=left;verticalAlign=middle;spacingLeft=4;spacingRight=4;overflow=hidden;points=[[0,0.5],[1,0.5]];portConstraint=eastwest;rotatable=0;whiteSpace=wrap;html=1;" parent="6DW21Ch75TktfgpjDAuI-2" vertex="1">
                    <mxGeometry y="120" width="140" height="30" as="geometry"/>
                </mxCell>
                <mxCell id="6DW21Ch75TktfgpjDAuI-8" value="Fixed cost per unit" style="text;strokeColor=none;fillColor=none;align=left;verticalAlign=middle;spacingLeft=4;spacingRight=4;overflow=hidden;points=[[0,0.5],[1,0.5]];portConstraint=eastwest;rotatable=0;whiteSpace=wrap;html=1;" parent="6DW21Ch75TktfgpjDAuI-2" vertex="1">
                    <mxGeometry y="150" width="140" height="30" as="geometry"/>
                </mxCell>
                <mxCell id="6DW21Ch75TktfgpjDAuI-9" value="Total Cost per unit" style="text;strokeColor=none;fillColor=none;align=left;verticalAlign=middle;spacingLeft=4;spacingRight=4;overflow=hidden;points=[[0,0.5],[1,0.5]];portConstraint=eastwest;rotatable=0;whiteSpace=wrap;html=1;" parent="6DW21Ch75TktfgpjDAuI-2" vertex="1">
                    <mxGeometry y="180" width="140" height="30" as="geometry"/>
                </mxCell>
                <mxCell id="6DW21Ch75TktfgpjDAuI-14" style="edgeStyle=orthogonalEdgeStyle;rounded=0;orthogonalLoop=1;jettySize=auto;html=1;" parent="1" source="6DW21Ch75TktfgpjDAuI-1" target="6DW21Ch75TktfgpjDAuI-2" edge="1">
                    <mxGeometry relative="1" as="geometry"/>
                </mxCell>
                <mxCell id="6DW21Ch75TktfgpjDAuI-16" value="&lt;b style=&quot;text-align: left; background-color: rgb(153, 255, 153);&quot;&gt;Cost Structure&lt;/b&gt;" style="swimlane;fontStyle=0;childLayout=stackLayout;horizontal=1;startSize=30;horizontalStack=0;resizeParent=1;resizeParentMax=0;resizeLast=0;collapsible=1;marginBottom=0;whiteSpace=wrap;html=1;fontColor=#000000;" parent="1" vertex="1">
                    <mxGeometry x="1070" y="1190" width="140" height="210" as="geometry"/>
                </mxCell>
                <mxCell id="6DW21Ch75TktfgpjDAuI-17" value="Fixed cost total" style="text;strokeColor=none;fillColor=none;align=left;verticalAlign=middle;spacingLeft=4;spacingRight=4;overflow=hidden;points=[[0,0.5],[1,0.5]];portConstraint=eastwest;rotatable=0;whiteSpace=wrap;html=1;" parent="6DW21Ch75TktfgpjDAuI-16" vertex="1">
                    <mxGeometry y="30" width="140" height="30" as="geometry"/>
                </mxCell>
                <mxCell id="6DW21Ch75TktfgpjDAuI-18" value="Freight" style="text;strokeColor=none;fillColor=none;align=left;verticalAlign=middle;spacingLeft=4;spacingRight=4;overflow=hidden;points=[[0,0.5],[1,0.5]];portConstraint=eastwest;rotatable=0;whiteSpace=wrap;html=1;" parent="6DW21Ch75TktfgpjDAuI-16" vertex="1">
                    <mxGeometry y="60" width="140" height="30" as="geometry"/>
                </mxCell>
                <mxCell id="6DW21Ch75TktfgpjDAuI-19" value="Customs &amp;amp; MISC" style="text;strokeColor=none;fillColor=none;align=left;verticalAlign=middle;spacingLeft=4;spacingRight=4;overflow=hidden;points=[[0,0.5],[1,0.5]];portConstraint=eastwest;rotatable=0;whiteSpace=wrap;html=1;" parent="6DW21Ch75TktfgpjDAuI-16" vertex="1">
                    <mxGeometry y="90" width="140" height="30" as="geometry"/>
                </mxCell>
                <mxCell id="6DW21Ch75TktfgpjDAuI-20" value="Total Cost" style="text;strokeColor=none;fillColor=none;align=left;verticalAlign=middle;spacingLeft=4;spacingRight=4;overflow=hidden;points=[[0,0.5],[1,0.5]];portConstraint=eastwest;rotatable=0;whiteSpace=wrap;html=1;" parent="6DW21Ch75TktfgpjDAuI-16" vertex="1">
                    <mxGeometry y="120" width="140" height="30" as="geometry"/>
                </mxCell>
                <mxCell id="6DW21Ch75TktfgpjDAuI-21" value="Fixed cost per unit" style="text;strokeColor=none;fillColor=none;align=left;verticalAlign=middle;spacingLeft=4;spacingRight=4;overflow=hidden;points=[[0,0.5],[1,0.5]];portConstraint=eastwest;rotatable=0;whiteSpace=wrap;html=1;" parent="6DW21Ch75TktfgpjDAuI-16" vertex="1">
                    <mxGeometry y="150" width="140" height="30" as="geometry"/>
                </mxCell>
                <mxCell id="6DW21Ch75TktfgpjDAuI-22" value="Total Cost per unit" style="text;strokeColor=none;fillColor=none;align=left;verticalAlign=middle;spacingLeft=4;spacingRight=4;overflow=hidden;points=[[0,0.5],[1,0.5]];portConstraint=eastwest;rotatable=0;whiteSpace=wrap;html=1;" parent="6DW21Ch75TktfgpjDAuI-16" vertex="1">
                    <mxGeometry y="180" width="140" height="30" as="geometry"/>
                </mxCell>
                <mxCell id="6DW21Ch75TktfgpjDAuI-23" style="edgeStyle=orthogonalEdgeStyle;rounded=0;orthogonalLoop=1;jettySize=auto;html=1;" parent="1" source="6DW21Ch75TktfgpjDAuI-15" target="6DW21Ch75TktfgpjDAuI-16" edge="1">
                    <mxGeometry relative="1" as="geometry"/>
                </mxCell>
                <mxCell id="6DW21Ch75TktfgpjDAuI-25" value="&lt;b style=&quot;text-align: left; background-color: rgb(153, 255, 153);&quot;&gt;Cost Structure&lt;/b&gt;" style="swimlane;fontStyle=0;childLayout=stackLayout;horizontal=1;startSize=30;horizontalStack=0;resizeParent=1;resizeParentMax=0;resizeLast=0;collapsible=1;marginBottom=0;whiteSpace=wrap;html=1;fontColor=#000000;" parent="1" vertex="1">
                    <mxGeometry x="2400" y="1200" width="140" height="210" as="geometry"/>
                </mxCell>
                <mxCell id="6DW21Ch75TktfgpjDAuI-26" value="Fixed cost total" style="text;strokeColor=none;fillColor=none;align=left;verticalAlign=middle;spacingLeft=4;spacingRight=4;overflow=hidden;points=[[0,0.5],[1,0.5]];portConstraint=eastwest;rotatable=0;whiteSpace=wrap;html=1;" parent="6DW21Ch75TktfgpjDAuI-25" vertex="1">
                    <mxGeometry y="30" width="140" height="30" as="geometry"/>
                </mxCell>
                <mxCell id="6DW21Ch75TktfgpjDAuI-27" value="Freight" style="text;strokeColor=none;fillColor=none;align=left;verticalAlign=middle;spacingLeft=4;spacingRight=4;overflow=hidden;points=[[0,0.5],[1,0.5]];portConstraint=eastwest;rotatable=0;whiteSpace=wrap;html=1;" parent="6DW21Ch75TktfgpjDAuI-25" vertex="1">
                    <mxGeometry y="60" width="140" height="30" as="geometry"/>
                </mxCell>
                <mxCell id="6DW21Ch75TktfgpjDAuI-28" value="Customs &amp;amp; MISC" style="text;strokeColor=none;fillColor=none;align=left;verticalAlign=middle;spacingLeft=4;spacingRight=4;overflow=hidden;points=[[0,0.5],[1,0.5]];portConstraint=eastwest;rotatable=0;whiteSpace=wrap;html=1;" parent="6DW21Ch75TktfgpjDAuI-25" vertex="1">
                    <mxGeometry y="90" width="140" height="30" as="geometry"/>
                </mxCell>
                <mxCell id="6DW21Ch75TktfgpjDAuI-29" value="Total Cost" style="text;strokeColor=none;fillColor=none;align=left;verticalAlign=middle;spacingLeft=4;spacingRight=4;overflow=hidden;points=[[0,0.5],[1,0.5]];portConstraint=eastwest;rotatable=0;whiteSpace=wrap;html=1;" parent="6DW21Ch75TktfgpjDAuI-25" vertex="1">
                    <mxGeometry y="120" width="140" height="30" as="geometry"/>
                </mxCell>
                <mxCell id="6DW21Ch75TktfgpjDAuI-30" value="Fixed cost per unit" style="text;strokeColor=none;fillColor=none;align=left;verticalAlign=middle;spacingLeft=4;spacingRight=4;overflow=hidden;points=[[0,0.5],[1,0.5]];portConstraint=eastwest;rotatable=0;whiteSpace=wrap;html=1;" parent="6DW21Ch75TktfgpjDAuI-25" vertex="1">
                    <mxGeometry y="150" width="140" height="30" as="geometry"/>
                </mxCell>
                <mxCell id="6DW21Ch75TktfgpjDAuI-31" value="Total Cost per unit" style="text;strokeColor=none;fillColor=none;align=left;verticalAlign=middle;spacingLeft=4;spacingRight=4;overflow=hidden;points=[[0,0.5],[1,0.5]];portConstraint=eastwest;rotatable=0;whiteSpace=wrap;html=1;" parent="6DW21Ch75TktfgpjDAuI-25" vertex="1">
                    <mxGeometry y="180" width="140" height="30" as="geometry"/>
                </mxCell>
                <mxCell id="6DW21Ch75TktfgpjDAuI-32" style="edgeStyle=orthogonalEdgeStyle;rounded=0;orthogonalLoop=1;jettySize=auto;html=1;" parent="1" source="6DW21Ch75TktfgpjDAuI-24" target="6DW21Ch75TktfgpjDAuI-25" edge="1">
                    <mxGeometry relative="1" as="geometry"/>
                </mxCell>
            </root>
        </mxGraphModel>
    </diagram>
</mxfile>